<?xml version="1.0" encoding="iso-8859-1"?>
<!-- Generator: Adobe Illustrator 19.0.0, SVG Export Plug-In . SVG Version: 6.00 Build 0)  -->
<svg version="1.1" id="Capa_1" xmlns="http://www.w3.org/2000/svg" xmlns:xlink="http://www.w3.org/1999/xlink" x="0px" y="0px"
	 viewBox="0 0 512 512" style="enable-background:new 0 0 512 512;" xml:space="preserve">
<path style="fill:#303C42;" d="M426.344,498.75l-6.948-27.792c-2.823-11.292-7.781-21.708-14.74-30.969
	c-15.561-20.751-39.961-33.374-65.786-34.447l-26.201-96.051c26.757-9.701,44.536-22.737,45.706-23.607
	c2.698-2.01,4.292-5.177,4.292-8.552s-1.594-6.542-4.292-8.552c-1.307-0.974-23.629-17.036-55.84-26.755
	c23.306-15.25,38.798-41.488,38.798-71.359c0-29.385-16.25-88.969-42.958-123.344c0.198-1.594,0.292-3.135,0.292-4.656
	C298.667,19.135,279.531,0,256,0s-42.667,19.135-42.667,42.667c0,1.521,0.094,3.063,0.292,4.656
	c-26.708,34.375-42.958,93.958-42.958,123.344c0,29.871,15.491,56.111,38.798,71.361c-32.211,9.719-54.533,25.78-55.84,26.754
	c-2.698,2.01-4.292,5.177-4.292,8.552s1.594,6.542,4.292,8.552c1.169,0.87,18.949,13.906,45.706,23.607l-26.201,96.051
	c-25.833,1.073-50.225,13.695-65.786,34.447c-6.958,9.26-11.917,19.677-14.74,30.979l-6.948,27.781
	c-0.802,3.177-0.083,6.563,1.938,9.146C89.615,510.49,92.719,512,96,512h320c3.281,0,6.385-1.51,8.406-4.104
	C426.427,505.313,427.146,501.927,426.344,498.75z"/>
<path style="fill:#757575;" d="M192,170.667c0-18.229,6.996-46.938,17.671-72.547l26.423,45.87c1.969,3.427,5.563,5.344,9.25,5.344
	c1.802,0,3.635-0.458,5.313-1.427c5.104-2.938,6.865-9.458,3.917-14.563l-33.547-58.237c3.844-6.712,7.848-12.97,12.089-17.94
	c2.219-2.604,3.063-6.125,2.25-9.448c-0.479-1.958-0.698-3.563-0.698-5.052c0-11.76,9.573-21.333,21.333-21.333
	c11.76,0,21.333,9.573,21.333,21.333c0,1.49-0.219,3.094-0.698,5.052c-0.813,3.323,0.031,6.844,2.25,9.448
	C301.656,83.854,320,141.083,320,170.667c0,35.292-28.708,64-64,64S192,205.958,192,170.667z"/>
<path style="opacity:0.1;enable-background:new    ;" d="M278.885,57.167c-2.219-2.604-3.063-6.125-2.25-9.448
	c0.479-1.958,0.698-3.563,0.698-5.052c0-11.76-9.573-21.333-21.333-21.333c-3.559,0-6.767,1.094-9.72,2.642
	c0.247,0.379,0.309,0.842,0.605,1.191C269.656,51.854,288,109.083,288,138.667c0,35.292-28.708,64-64,64
	c-9.368,0-18.206-2.137-26.232-5.768c10.051,22.211,32.309,37.768,58.232,37.768c35.292,0,64-28.708,64-64
	C320,141.083,301.656,83.854,278.885,57.167z"/>
<path style="fill:#757575;" d="M256,256c31.646,0,59.865,12.51,75.854,21.354c-15.938,8.833-44.083,21.313-75.854,21.313
	c-31.646,0-59.865-12.51-75.854-21.354C196.083,268.479,224.229,256,256,256z"/>
<path style="opacity:0.1;enable-background:new    ;" d="M263.027,256.641c10.305,3.794,19.482,8.02,26.16,11.714
	c-15.938,8.833-44.083,21.313-75.854,21.313c-2.422,0-4.65-0.501-7.027-0.641c14.366,5.29,31.267,9.641,49.694,9.641
	c31.771,0,59.917-12.479,75.854-21.313C317.089,269.188,291.72,258.322,263.027,256.641z"/>
<path style="fill:#757575;" d="M256,320c12.824,0,24.939-1.849,36.191-4.518l24.509,89.852H195.299l24.509-89.852
	C231.063,318.151,243.176,320,256,320z"/>
<path style="opacity:0.2;fill:#FFFFFF;enable-background:new    ;" d="M219.809,315.482l-24.509,89.852h30.034l11.935-86.6
	C231.247,317.938,225.421,316.813,219.809,315.482z"/>
<path style="opacity:0.1;enable-background:new    ;" d="M292.191,315.482c-5.611,1.331-11.439,2.456-17.46,3.251l11.935,86.6
	h30.034L292.191,315.482z"/>
<path style="fill:#757575;" d="M109.667,490.667l3.625-14.521c2.135-8.521,5.875-16.375,11.115-23.354
	c12.271-16.354,31.802-26.125,52.25-26.125h158.688c20.448,0,39.979,9.771,52.25,26.125v0.01c5.24,6.969,8.979,14.823,11.115,23.333
	l3.625,14.531H109.667z"/>
<path style="opacity:0.1;enable-background:new    ;" d="M398.708,476.374c-2.135-8.51-5.875-16.365-11.115-23.333v-0.01
	c-12.271-16.354-31.802-26.125-52.25-26.125h-4.677h-40.99c20.448,0,39.979,9.771,52.25,26.125v0.01
	c5.24,6.969,8.979,14.823,11.115,23.333l3.625,14.531h45.667L398.708,476.374z"/>
<path style="opacity:0.2;fill:#FFFFFF;enable-background:new    ;" d="M113.292,476.374c2.135-8.51,5.875-16.365,11.115-23.333
	v-0.01c12.271-16.354,31.802-26.125,52.25-26.125h4.677h40.99c-20.448,0-39.979,9.771-52.25,26.125v0.01
	c-5.24,6.969-8.979,14.823-11.115,23.333l-3.625,14.531h-45.667L113.292,476.374z"/>
<linearGradient id="SVGID_1_" gradientUnits="userSpaceOnUse" x1="-40.9864" y1="635.7433" x2="-24.3249" y2="627.9731" gradientTransform="matrix(21.3333 0 0 -21.3333 996.3334 13791.667)">
	<stop  offset="0" style="stop-color:#FFFFFF;stop-opacity:0.2"/>
	<stop  offset="1" style="stop-color:#FFFFFF;stop-opacity:0"/>
</linearGradient>
<path style="fill:url(#SVGID_1_);" d="M426.344,498.75l-6.948-27.792c-2.823-11.292-7.781-21.708-14.74-30.969
	c-15.561-20.751-39.961-33.374-65.786-34.447l-26.201-96.051c26.757-9.701,44.536-22.737,45.706-23.607
	c2.698-2.01,4.292-5.177,4.292-8.552s-1.594-6.542-4.292-8.552c-1.307-0.974-23.629-17.036-55.84-26.755
	c23.306-15.25,38.798-41.488,38.798-71.359c0-29.385-16.25-88.969-42.958-123.344c0.198-1.594,0.292-3.135,0.292-4.656
	C298.667,19.135,279.531,0,256,0s-42.667,19.135-42.667,42.667c0,1.521,0.094,3.063,0.292,4.656
	c-26.708,34.375-42.958,93.958-42.958,123.344c0,29.871,15.491,56.111,38.798,71.361c-32.211,9.719-54.533,25.78-55.84,26.754
	c-2.698,2.01-4.292,5.177-4.292,8.552s1.594,6.542,4.292,8.552c1.169,0.87,18.949,13.906,45.706,23.607l-26.201,96.051
	c-25.833,1.073-50.225,13.695-65.786,34.447c-6.958,9.26-11.917,19.677-14.74,30.979l-6.948,27.781
	c-0.802,3.177-0.083,6.563,1.938,9.146C89.615,510.49,92.719,512,96,512h320c3.281,0,6.385-1.51,8.406-4.104
	C426.427,505.313,427.146,501.927,426.344,498.75z"/>
<g>
</g>
<g>
</g>
<g>
</g>
<g>
</g>
<g>
</g>
<g>
</g>
<g>
</g>
<g>
</g>
<g>
</g>
<g>
</g>
<g>
</g>
<g>
</g>
<g>
</g>
<g>
</g>
<g>
</g>
</svg>
