<?xml version="1.0" encoding="iso-8859-1"?>
<!-- Generator: Adobe Illustrator 19.0.0, SVG Export Plug-In . SVG Version: 6.00 Build 0)  -->
<svg version="1.1" id="Capa_1" xmlns="http://www.w3.org/2000/svg" xmlns:xlink="http://www.w3.org/1999/xlink" x="0px" y="0px"
	 viewBox="0 0 511.991 511.991" style="enable-background:new 0 0 511.991 511.991;" xml:space="preserve">
<path style="fill:#303C42;" d="M341.328,234.658h18.104l29.313,19.542c1.75,1.167,3.813,1.792,5.917,1.792h21.333
	c5.896,0,10.667-4.771,10.667-10.667v-42.667c0-1.854-0.49-3.677-1.406-5.292l-41.26-72.208v-18.5c0-2.313-0.75-4.552-2.135-6.396
	l-29.135-38.854l9.729-48.656c0.688-3.438-0.354-7-2.792-9.51c-2.448-2.521-5.99-3.656-9.417-3.104l-62.583,10.531
	c-3.323,0.104-81.708,2.948-113.875,35.115c-13.771,13.771-45.792,51.417-45.792,103.542c0,42-10.604,71.031-40.531,110.937
	c-3.188,4.24-2.76,10.188,0.99,13.938c13.177,13.177,34.146,23.042,34.49,23.188c0.332,0.191,32.236,19.699,36.398,109.823
	c-20.546,4.237-39.249,15.763-52.003,32.771c-6.958,9.26-11.917,19.677-14.74,30.979l-6.948,27.781
	c-0.802,3.177-0.083,6.563,1.938,9.146c2.021,2.594,5.125,4.104,8.406,4.104h320c3.281,0,6.385-1.51,8.406-4.104
	c2.021-2.583,2.74-5.969,1.938-9.146l-6.948-27.792c-2.823-11.292-7.781-21.708-14.74-30.969
	c-10.835-14.448-25.986-24.9-42.882-30.353c-3.904-78.461-33.018-125.559-56.764-163.408
	c-10.333-16.469-19.208-30.615-23.969-44.396l55,31.427C337.651,234.168,339.474,234.658,341.328,234.658z"/>
<path style="fill:#757575;" d="M109.661,490.539l3.625-14.521c2.135-8.521,5.875-16.375,11.115-23.354
	c12.271-16.354,31.802-26.125,52.25-26.125h158.688c20.448,0,39.979,9.771,52.25,26.125v0.01c5.24,6.969,8.979,14.823,11.115,23.333
	l3.625,14.531H109.661z"/>
<path style="opacity:0.1;enable-background:new    ;" d="M398.703,476.246c-2.135-8.51-5.875-16.365-11.115-23.333v-0.01
	c-12.271-16.354-31.802-26.125-52.25-26.125h-4.677h-40.99c20.448,0,39.979,9.771,52.25,26.125v0.01
	c5.24,6.969,8.979,14.823,11.115,23.333l3.625,14.531h45.667L398.703,476.246z"/>
<path style="opacity:0.2;fill:#FFFFFF;enable-background:new    ;" d="M113.286,476.246c2.135-8.51,5.875-16.365,11.115-23.333
	v-0.01c12.271-16.354,31.802-26.125,52.25-26.125h4.677h40.99c-20.448,0-39.979,9.771-52.25,26.125v0.01
	c-5.24,6.969-8.979,14.823-11.115,23.333l-3.625,14.531h-45.667L113.286,476.246z"/>
<path style="fill:#757575;" d="M286.932,257.553c21.87,34.859,48.503,78.122,53.177,148.053c-1.591-0.09-3.169-0.283-4.771-0.283
	H180.596c-4.898-101.79-43.267-124.547-48.091-127c-3.917-1.823-13.771-7.031-22.094-13.323
	c28.24-39.729,38.917-71.938,38.917-115.677c0-44.146,27.656-76.573,39.542-88.458c21.75-21.74,79.177-28.219,100.875-29.021
	l48.76-8.125l-7.635,38.177c-0.594,2.979,0.104,6.063,1.927,8.49l29.865,39.823v17.781c0,1.854,0.49,3.677,1.406,5.292l41.26,72.208
	v29.167h-7.438l-29.313-19.542c-1.75-1.167-3.813-1.792-5.917-1.792h-18.5l-72.208-41.26c-3.292-1.885-7.354-1.875-10.646,0.031
	c-3.292,1.917-5.313,5.427-5.313,9.229C255.995,208.251,270.328,231.095,286.932,257.553z"/>
<path style="opacity:0.1;enable-background:new    ;" d="M271.953,172.064l72.208,41.26h17.318l-26.312-17.542
	c-1.75-1.167-3.813-1.792-5.917-1.792h-18.5l-72.208-41.26c-3.292-1.885-7.354-1.875-10.646,0.031
	c-3.292,1.917-5.313,5.427-5.313,9.229c0,26.927,14.333,49.771,30.938,76.229c17.15,27.335,37.228,59.837,47.35,106.315
	c4.656,21.383-11.792,41.669-33.676,41.629c-27.151-0.048-62.674-0.099-88.029-0.133c0.605,6.108,1.103,12.497,1.43,19.293h154.742
	c1.602,0,3.18,0.193,4.771,0.283c-4.674-69.931-31.307-113.194-53.177-148.053c-16.604-26.458-30.938-49.302-30.938-76.229
	c0-3.802,2.021-7.313,5.313-9.229C264.599,170.189,268.661,170.178,271.953,172.064z"/>
<path style="opacity:0.2;fill:#FFFFFF;enable-background:new    ;" d="M133.78,279.033c21.243-33.628,29.548-63.206,29.548-101.708
	c0-44.146,27.656-76.573,39.542-88.458c21.75-21.74,79.177-28.219,100.875-29.021l28.484-4.746l6.276-31.379l-48.76,8.125
	c-21.698,0.802-79.125,7.281-100.875,29.021c-11.885,11.885-39.542,44.313-39.542,88.458c0,43.74-10.677,75.948-38.917,115.677
	c8.323,6.292,18.177,11.5,22.094,13.323C132.805,278.477,133.237,278.71,133.78,279.033z"/>
<linearGradient id="SVGID_1_" gradientUnits="userSpaceOnUse" x1="-42.3392" y1="637.3387" x2="-23.9574" y2="628.7678" gradientTransform="matrix(21.3333 0 0 -21.3333 996.425 13791.5664)">
	<stop  offset="0" style="stop-color:#FFFFFF;stop-opacity:0.2"/>
	<stop  offset="1" style="stop-color:#FFFFFF;stop-opacity:0"/>
</linearGradient>
<path style="fill:url(#SVGID_1_);" d="M341.328,234.658h18.104l29.313,19.542c1.75,1.167,3.813,1.792,5.917,1.792h21.333
	c5.896,0,10.667-4.771,10.667-10.667v-42.667c0-1.854-0.49-3.677-1.406-5.292l-41.26-72.208v-18.5c0-2.313-0.75-4.552-2.135-6.396
	l-29.135-38.854l9.729-48.656c0.688-3.438-0.354-7-2.792-9.51c-2.448-2.521-5.99-3.656-9.417-3.104l-62.583,10.531
	c-3.323,0.104-81.708,2.948-113.875,35.115c-13.771,13.771-45.792,51.417-45.792,103.542c0,42-10.604,71.031-40.531,110.937
	c-3.188,4.24-2.76,10.188,0.99,13.938c13.177,13.177,34.146,23.042,34.49,23.188c0.332,0.191,32.236,19.699,36.398,109.823
	c-20.546,4.237-39.249,15.763-52.003,32.771c-6.958,9.26-11.917,19.677-14.74,30.979l-6.948,27.781
	c-0.802,3.177-0.083,6.563,1.938,9.146c2.021,2.594,5.125,4.104,8.406,4.104h320c3.281,0,6.385-1.51,8.406-4.104
	c2.021-2.583,2.74-5.969,1.938-9.146l-6.948-27.792c-2.823-11.292-7.781-21.708-14.74-30.969
	c-10.835-14.448-25.986-24.9-42.882-30.353c-3.904-78.461-33.018-125.559-56.764-163.408
	c-10.333-16.469-19.208-30.615-23.969-44.396l55,31.427C337.651,234.168,339.474,234.658,341.328,234.658z"/>
<g>
</g>
<g>
</g>
<g>
</g>
<g>
</g>
<g>
</g>
<g>
</g>
<g>
</g>
<g>
</g>
<g>
</g>
<g>
</g>
<g>
</g>
<g>
</g>
<g>
</g>
<g>
</g>
<g>
</g>
</svg>
